<?xml version="1.0" standalone="no"?>
<!DOCTYPE svg PUBLIC "-//W3C//DTD SVG 1.1//EN" "http://www.w3.org/Graphics/SVG/1.1/DTD/svg11.dtd">
<svg version="1.1" xmlns="http://www.w3.org/2000/svg" viewBox="0 0 60 59.380566450758124" width="150" height="150"><!-- svg-source:excalidraw --><metadata></metadata><defs><style class="style-fonts">
      </style></defs><g stroke-linecap="round" transform="translate(10 10) rotate(0 20 19.690283225378607)"><path d="M23.4 0.26 C27.35 0.67, 32.15 4.06, 34.85 7.27 C37.55 10.47, 39.47 15.28, 39.6 19.49 C39.73 23.7, 38.2 29.33, 35.62 32.52 C33.04 35.7, 28.41 37.83, 24.13 38.61 C19.85 39.38, 13.76 39.11, 9.92 37.16 C6.08 35.22, 2.51 30.92, 1.09 26.92 C-0.32 22.92, -0.01 17.12, 1.42 13.17 C2.86 9.22, 6.03 5.37, 9.7 3.21 C13.36 1.04, 21.09 0.53, 23.44 0.16 C25.78 -0.21, 23.83 0.62, 23.76 0.98 M21.09 0.72 C25.06 0.63, 29.81 1.89, 32.95 4.7 C36.09 7.51, 39.27 13.29, 39.92 17.6 C40.57 21.91, 39.02 27, 36.85 30.56 C34.68 34.12, 30.87 37.68, 26.9 38.97 C22.93 40.27, 17.07 39.91, 13.01 38.34 C8.95 36.77, 4.57 33.23, 2.53 29.55 C0.49 25.87, -0.19 20.37, 0.77 16.26 C1.74 12.15, 5.1 7.48, 8.33 4.89 C11.56 2.29, 18.22 1.33, 20.16 0.7 C22.1 0.07, 19.83 0.9, 19.97 1.11" stroke="none" stroke-width="0" fill="#2e3b53"></path><path d="M18.56 0.08 C22.67 -0.5, 28.8 1.13, 32.26 3.57 C35.71 6.01, 38.33 10.57, 39.3 14.73 C40.26 18.88, 39.89 24.74, 38.04 28.51 C36.2 32.27, 32.24 35.63, 28.22 37.33 C24.2 39.03, 18 39.77, 13.91 38.71 C9.83 37.65, 6.02 34.57, 3.69 30.96 C1.36 27.35, -0.41 21.28, -0.06 17.06 C0.28 12.84, 2.42 8.52, 5.76 5.62 C9.09 2.71, 17.36 0.51, 19.97 -0.37 C22.58 -1.25, 21.34 -0.1, 21.44 0.33 M24.81 0.68 C28.71 1.31, 32.97 4.4, 35.49 7.88 C38.01 11.36, 40.02 17.19, 39.94 21.55 C39.86 25.91, 37.9 31.17, 34.99 34.05 C32.07 36.92, 26.8 38.4, 22.46 38.79 C18.13 39.19, 12.51 38.79, 8.98 36.4 C5.46 34.01, 2.56 28.48, 1.31 24.46 C0.05 20.43, -0.33 15.93, 1.44 12.25 C3.21 8.56, 7.98 4.36, 11.93 2.34 C15.87 0.33, 22.87 0.45, 25.1 0.14 C27.33 -0.17, 25.49 0.14, 25.28 0.49" stroke="#4e4b64" stroke-width="4" fill="none"></path></g><g stroke-linecap="round"><g transform="translate(38.48468093669271 36.51145552340677) rotate(0 -7.718822863203513 -7.60684007817099)" fill-rule="evenodd"><path d="M0 0 C-2.53 -0.08, -12.04 0.24, -15.21 -0.51 C-18.37 -1.26, -18.56 -3.21, -19 -4.51 C-19.44 -5.81, -18.54 -7.43, -17.83 -8.3 C-17.13 -9.17, -15.62 -8.85, -14.75 -9.73 C-13.89 -10.61, -13.89 -12.68, -12.64 -13.59 C-11.4 -14.5, -9.06 -15.38, -7.26 -15.19 C-5.45 -14.99, -2.86 -13.62, -1.81 -12.43 C-0.75 -11.24, -1.59 -8.91, -0.94 -8.03 C-0.3 -7.15, 1.29 -7.74, 2.05 -7.15 C2.82 -6.55, 3.6 -5.41, 3.67 -4.45 C3.75 -3.49, 3.12 -2.1, 2.51 -1.36 C1.9 -0.62, 0.42 -0.23, 0 0" stroke="none" stroke-width="0" fill="#ffecd6" fill-rule="evenodd"></path><path d="M0 0 C-2.53 -0.08, -12.04 0.24, -15.21 -0.51 C-18.37 -1.26, -18.56 -3.21, -19 -4.51 C-19.44 -5.81, -18.54 -7.43, -17.83 -8.3 C-17.13 -9.17, -15.62 -8.85, -14.75 -9.73 C-13.89 -10.61, -13.89 -12.68, -12.64 -13.59 C-11.4 -14.5, -9.06 -15.38, -7.26 -15.19 C-5.45 -14.99, -2.86 -13.62, -1.81 -12.43 C-0.75 -11.24, -1.59 -8.91, -0.94 -8.03 C-0.3 -7.15, 1.29 -7.74, 2.05 -7.15 C2.82 -6.55, 3.6 -5.41, 3.67 -4.45 C3.75 -3.49, 3.12 -2.1, 2.51 -1.36 C1.9 -0.62, 0.42 -0.23, 0 0 M0 0 C-2.53 -0.08, -12.04 0.24, -15.21 -0.51 C-18.37 -1.26, -18.56 -3.21, -19 -4.51 C-19.44 -5.81, -18.54 -7.43, -17.83 -8.3 C-17.13 -9.17, -15.62 -8.85, -14.75 -9.73 C-13.89 -10.61, -13.89 -12.68, -12.64 -13.59 C-11.4 -14.5, -9.06 -15.38, -7.26 -15.19 C-5.45 -14.99, -2.86 -13.62, -1.81 -12.43 C-0.75 -11.24, -1.59 -8.91, -0.94 -8.03 C-0.3 -7.15, 1.29 -7.74, 2.05 -7.15 C2.82 -6.55, 3.6 -5.41, 3.67 -4.45 C3.75 -3.49, 3.12 -2.1, 2.51 -1.36 C1.9 -0.62, 0.42 -0.23, 0 0" stroke="#ffe0bc" stroke-width="4" fill="none"></path></g></g><mask></mask></svg>
